<?xml version="1.0" encoding="utf-8"?>
<!-- Generator: Adobe Illustrator 14.0.0, SVG Export Plug-In . SVG Version: 6.00 Build 43363)  -->
<!DOCTYPE svg PUBLIC "-//W3C//DTD SVG 1.1//EN" "http://www.w3.org/Graphics/SVG/1.1/DTD/svg11.dtd">
<svg version="1.1"
	 id="svg2" xmlns:svg="http://www.w3.org/2000/svg" inkscape:export-xdpi="90" xmlns:dc="http://purl.org/dc/elements/1.1/" xmlns:sodipodi="http://sodipodi.sourceforge.net/DTD/sodipodi-0.dtd" xmlns:inkscape="http://www.inkscape.org/namespaces/inkscape" sodipodi:docname="test.svg" xmlns:cc="http://creativecommons.org/ns#" inkscape:version="0.48.2 r9819" xmlns:rdf="http://www.w3.org/1999/02/22-rdf-syntax-ns#" inkscape:export-ydpi="90" inkscape:export-filename="/Users/dsa/Downloads/test.png"
	 xmlns="http://www.w3.org/2000/svg" xmlns:xlink="http://www.w3.org/1999/xlink" x="0px" y="0px" width="16px" height="22px"
	 viewBox="0 0 16 22" enable-background="new 0 0 16 22" xml:space="preserve">
<sodipodi:namedview  id="base" inkscape:window-y="99" inkscape:window-x="285" inkscape:window-height="809" inkscape:window-width="1305" inkscape:snap-global="true" showgrid="true" inkscape:cy="11.15028" inkscape:cx="13.137691" inkscape:zoom="26.863636" inkscape:document-units="px" pagecolor="#ff0000" inkscape:pageshadow="2" inkscape:pageopacity="0.0" borderopacity="1.0" inkscape:current-layer="layer1" bordercolor="#666666" inkscape:window-maximized="0">
	
		<inkscape:grid  dotted="false" enabled="true" visible="true" id="grid3846" empspacing="5" snapvisiblegridlinesonly="true" type="xygrid">
		</inkscape:grid>
</sodipodi:namedview>
<g id="layer1" transform="translate(0,-1030.3622)" inkscape:groupmode="layer" inkscape:label="Layer 1">
	<path id="path3777" inkscape:connector-curvature="0" d="M16.002,1037.362c0,3.313-2.688,6-6,6c-3.314,0-6-2.687-6-6s2.687-6,6-6
		C13.314,1031.362,16.002,1034.049,16.002,1037.362z"/>
	
		<path id="path3781" sodipodi:ry="7.2200141" sodipodi:rx="7.2013092" sodipodi:cy="13.358429" sodipodi:cx="13.074585" sodipodi:type="arc" d="
		M12,1042.206c0,3.313-2.687,6-6,6s-6-2.687-6-6s2.687-6,6-6S12,1038.892,12,1042.206z"/>
	
		<path id="path3783" sodipodi:ry="7.2200141" sodipodi:rx="7.2013092" sodipodi:cy="13.358429" sodipodi:cx="13.074585" sodipodi:type="arc" d="
		M16,1045.362c0,3.313-2.687,6-6,6s-6-2.687-6-6s2.687-6,6-6S16,1042.049,16,1045.362z"/>
	<text transform="matrix(1 0 0 1 2 1045.3622)" fill="#FFFFFF" font-family="'Arial-BoldMT'" font-size="10">R</text>
	<text transform="matrix(1 0 0 1 6 1040.3622)" fill="#FFFFFF" font-family="'Arial-BoldMT'" font-size="10">S</text>
	<text transform="matrix(1 0 0 1 7 1049.3622)" fill="#FFFFFF" font-family="'Arial-BoldMT'" font-size="10">S</text>
	<path id="path3888" sodipodi:nodetypes="ccccc" inkscape:connector-curvature="0" fill="#FFFFFF" d="M1,1051.362l15.002-18.031
		l-0.002,1l-12,17.031H1z"/>
</g>
</svg>
